<svg width="20" height="20" viewBox="0 0 20 20" fill="none" xmlns="http://www.w3.org/2000/svg">
<path d="M6.25 8.75C5.75555 8.75 5.2722 8.60338 4.86107 8.32867C4.44995 8.05397 4.12952 7.66352 3.9403 7.20671C3.75108 6.74989 3.70157 6.24723 3.79804 5.76227C3.8945 5.27732 4.1326 4.83186 4.48223 4.48223C4.83186 4.1326 5.27732 3.8945 5.76227 3.79804C6.24723 3.70157 6.74989 3.75108 7.20671 3.9403C7.66352 4.12952 8.05397 4.44995 8.32867 4.86107C8.60338 5.2722 8.75 5.75555 8.75 6.25C8.74926 6.91281 8.48562 7.54826 8.01694 8.01694C7.54826 8.48562 6.91281 8.74926 6.25 8.75ZM6.25 5C6.00284 4.99975 5.76115 5.07279 5.55548 5.20987C5.34982 5.34695 5.18941 5.54192 5.09453 5.77015C4.99964 5.99837 4.97455 6.2496 5.02242 6.49209C5.07029 6.73457 5.18897 6.95742 5.36346 7.13247C5.53795 7.30752 5.76042 7.42691 6.00275 7.47555C6.24507 7.5242 6.49638 7.49991 6.72491 7.40576C6.95344 7.3116 7.14893 7.15182 7.28666 6.94659C7.4244 6.74137 7.49821 6.49991 7.49875 6.25275C7.49915 5.92107 7.36784 5.6028 7.13368 5.3679C6.89952 5.13299 6.58168 5.00066 6.25 5Z" fill="#F3F3F3"/>
<path d="M10.4023 18.3841L1.61612 9.59719C1.38172 9.36279 1.25002 9.04487 1.25 8.71337V2.5C1.25 2.16848 1.3817 1.85054 1.61612 1.61612C1.85054 1.3817 2.16848 1.25 2.5 1.25H8.71331C9.04483 1.25 9.36277 1.3817 9.59719 1.61612L18.384 10.4023C18.6184 10.6367 18.75 10.9546 18.75 11.2862C18.75 11.6177 18.6184 11.9356 18.384 12.1701L12.17 18.3841C11.9355 18.6184 11.6176 18.7501 11.2861 18.7501C10.9546 18.7501 10.6367 18.6184 10.4023 18.3841ZM2.5 2.5V8.71356L11.2861 17.5L17.5 11.2862L8.7135 2.5H2.5Z" fill="#F3F3F3"/>
</svg>
